HIERARCHY
ROOT Hips
{
	OFFSET -3.958830 18.904000 13.208200
	CHANNELS 6 Xposition Yposition Zposition Zrotation Yrotation Xrotation 
	JOINT LHipJoint
	{
		OFFSET 0.000000 0.000000 0.000000
		CHANNELS 3 Zrotation Yrotation Xrotation
		JOINT LeftUpLeg
		{
			OFFSET 1.800000 -1.400000 0.085000
			CHANNELS 3 Zrotation Yrotation Xrotation
			JOINT LeftLeg
			{
				OFFSET 2.215000 -6.000000 0.000000
				CHANNELS 3 Zrotation Yrotation Xrotation
				JOINT LeftFoot
				{
					OFFSET 2.500000 -6.900000 0.000000
					CHANNELS 3 Zrotation Yrotation Xrotation
					JOINT LeftToeBase
					{
						OFFSET 0.200000 -0.500000 1.950000
						CHANNELS 3 Zrotation Yrotation Xrotation
						End Site
						{
							OFFSET 0.000000 0.000000 0.000000
						}
					}
				}
			}
		}
	}
	JOINT RHipJoint
	{
		OFFSET 0.000000 0.000000 0.000000
		CHANNELS 3 Zrotation Yrotation Xrotation
		JOINT RightUpLeg
		{
			OFFSET -1.800000 -1.400000 0.085000
			CHANNELS 3 Zrotation Yrotation Xrotation
			JOINT RightLeg
			{
				OFFSET -2.215000 -6.000000 0.000000
				CHANNELS 3 Zrotation Yrotation Xrotation
				JOINT RightFoot
				{
					OFFSET -2.500000 -6.900000 0.000000
					CHANNELS 3 Zrotation Yrotation Xrotation
					JOINT RightToeBase
					{
						OFFSET -0.200000 -0.500000 1.950000
						CHANNELS 3 Zrotation Yrotation Xrotation
						End Site
						{
							OFFSET 0.000000 0.000000 0.000000
						}
					}
				}
			}
		}
	}
	JOINT LowerBack
	{
		OFFSET 0.000000 0.000000 0.000000
		CHANNELS 3 Zrotation Yrotation Xrotation
		JOINT Spine
		{
			OFFSET -0.087000 1.940000 -0.288900
			CHANNELS 3 Zrotation Yrotation Xrotation
			JOINT Spine1
			{
				OFFSET 0.000000 1.950000 0.060000
				CHANNELS 3 Zrotation Yrotation Xrotation
				JOINT Neck
				{
					OFFSET 0.000000 0.000000 0.000000
					CHANNELS 3 Zrotation Yrotation Xrotation
					JOINT Neck1
					{
						OFFSET 0.000000 1.600000 0.340000
						CHANNELS 3 Zrotation Yrotation Xrotation
						JOINT Head
						{
							OFFSET 0.000000 1.667000 -0.240000
							CHANNELS 3 Zrotation Yrotation Xrotation
							End Site
							{
								OFFSET 0.000000 0.000000 0.000000
							}
						}
					}
				}
				JOINT LeftShoulder
				{
					OFFSET 0.000000 0.000000 0.000000
					CHANNELS 3 Zrotation Yrotation Xrotation
					JOINT LeftArm
					{
						OFFSET 2.700000 1.550000 -0.730000
						CHANNELS 3 Zrotation Yrotation Xrotation
						JOINT LeftForeArm
						{
							OFFSET 5.450000 0.000000 0.000000
							CHANNELS 3 Zrotation Yrotation Xrotation
							JOINT LeftHand
							{
								OFFSET 3.450000 0.000000 0.000000
								CHANNELS 3 Zrotation Yrotation Xrotation
								JOINT LeftHandIndex1
								{
									OFFSET 0.750000 0.000000 0.000000
									CHANNELS 3 Zrotation Yrotation Xrotation
									End Site
									{
										OFFSET 0.000000 0.000000 0.000000
									}
								}
							}
						}
					}
				}
				JOINT RightShoulder
				{
					OFFSET 0.000000 0.000000 0.000000
					CHANNELS 3 Zrotation Yrotation Xrotation
					JOINT RightArm
					{
						OFFSET -2.700000 1.550000 -0.730000
						CHANNELS 3 Zrotation Yrotation Xrotation
						JOINT RightForeArm
						{
							OFFSET -5.450000 0.000000 0.000000
							CHANNELS 3 Zrotation Yrotation Xrotation
							JOINT RightHand
							{
								OFFSET -3.450000 0.000000 0.000000
								CHANNELS 3 Zrotation Yrotation Xrotation
								JOINT RightHandIndex1
								{
									OFFSET -0.750000 0.000000 0.000000
									CHANNELS 3 Zrotation Yrotation Xrotation
									End Site
									{
										OFFSET 0.000000 0.000000 0.000000
									}
								}
							}
						}
					}
				}
			}
		}
	}
}
MOTION
Frames: 6
Frame Time: 0.016667
2.447680 17.309970 -2.632010 -5.467860 -26.832785 9.439119 -15.578851 13.279247 2.944197 -3.464913 -0.476813 -8.547418 -7.919354 4.733247 7.028065 -0.734828 4.370141 3.488278 0.712330 0.493240 0.332650 18.084711 -9.485720 3.110308 -3.239519 2.867887 -29.340305 3.066909 -1.697374 -0.760437 0.057987 -2.305020 3.660829 0.607960 0.797950 0.643980 -2.682640 -3.509464 -6.982541 0.862947 -4.816999 3.495342 3.582942 -6.375163 5.318660 0.927064 2.119071 -6.789875 2.839498 6.581522 19.774693 -5.563450 7.623610 -5.166150 -15.193427 -6.549199 1.340071 -9.165943 -12.873160 1.791663 9.507254 -2.115722 -1.217376 -4.556339 2.919048 0.251180 0.801890 -0.162590 0.580100 14.672204 3.170950 2.677474 17.109960 6.050096 -0.816653 -11.775429 6.042925 -1.825992 2.042805 -1.893750 -0.309220 0.232560 -0.275340 -0.072690 
2.450460 17.312710 -2.633590 -5.577920 -27.451712 9.222028 -15.562416 13.256896 2.950507 -3.603248 -0.393366 -8.176964 -7.766730 4.699814 7.019474 -0.688675 4.296096 3.493064 0.782560 0.574840 0.381340 18.095043 -9.529758 3.127307 -3.310027 2.841012 -29.655301 2.896655 -1.658514 -0.634077 0.034132 -2.267082 3.656645 0.632660 0.727260 0.641430 -2.715672 -3.377482 -7.016670 1.100456 -4.750824 3.916102 3.402568 -6.304956 5.226810 1.065815 2.390866 -6.822045 3.329340 5.627284 20.178556 -5.188470 6.851190 -5.547810 -14.780343 -6.467193 1.311037 -7.365483 -12.672132 1.676284 8.840480 -1.528828 -1.131626 -4.481911 2.968831 0.251810 0.747650 -0.115760 0.600950 13.947035 2.986706 2.684168 16.267568 6.329941 -0.703777 -12.284574 5.653918 -1.824840 2.095864 -1.931849 -0.261730 0.192890 -0.342420 -0.057720 
2.451120 17.319050 -2.634880 -5.895067 -28.281658 9.119478 -15.551477 13.202459 2.961470 -3.454539 -0.284776 -7.556017 -7.837090 4.591839 6.283948 -0.691391 4.214274 3.476941 0.912290 0.716210 0.464500 18.105716 -9.558966 3.148369 -3.373477 2.853829 -29.949251 2.725850 -1.584986 -0.753426 -0.003697 -2.241965 3.636585 0.703760 0.614200 0.631710 -2.748992 -3.211083 -7.058026 1.415839 -4.498019 4.297288 3.537915 -6.075887 5.007075 1.218348 2.724591 -6.622140 3.919870 3.985513 20.516630 -4.888300 5.396600 -6.689840 -13.987101 -5.806223 0.888504 -5.706769 -13.165175 1.665524 8.249166 -1.511898 -1.093206 -4.365622 3.035773 0.284650 0.669260 -0.055880 0.624530 12.842089 2.233437 2.616461 14.664070 6.199229 -0.581278 -12.656923 6.155402 -1.897879 2.112390 -1.993039 -0.216120 0.142000 -0.432960 -0.060390 
2.451430 17.322030 -2.635270 -5.868652 -28.871214 8.803338 -15.552567 13.164967 2.978804 -3.608597 -0.100970 -6.794567 -7.614673 4.430355 5.480203 -0.696561 4.143216 3.455249 1.012800 0.828470 0.512660 18.104505 -9.557509 3.171920 -4.051305 2.734102 -30.247431 2.994796 -1.561274 -1.133889 -0.048326 -2.254847 3.594997 0.758140 0.523740 0.639530 -2.750921 -3.124536 -7.108220 1.458551 -4.377273 4.703131 3.507056 -5.929132 4.659753 1.401527 2.943353 -6.376806 4.281836 2.576417 20.882835 -4.453940 3.954760 -7.953180 -13.036271 -4.953928 0.398613 -4.492236 -13.871917 1.636518 8.653434 -1.105018 -1.098720 -4.286744 3.098403 0.317230 0.601060 0.000820 0.642410 11.537174 1.344484 2.523419 13.270697 6.117271 -0.442711 -12.902620 6.081893 -1.881784 2.129695 -2.035014 -0.169720 0.098820 -0.486540 -0.056110 
2.437930 17.315770 -2.638000 -5.645958 -29.707306 8.394156 -15.568106 13.157493 3.002274 -3.802603 0.041547 -6.220184 -7.594271 4.408851 5.190925 -0.668396 4.136396 3.430597 1.032230 0.843210 0.531060 18.085416 -9.558458 3.186599 -4.605753 2.620087 -30.613489 2.905095 -1.554229 -1.262919 -0.068174 -2.240100 3.571056 0.747530 0.467620 0.654810 -2.688640 -3.089158 -7.161686 0.697318 -3.979397 5.129399 4.011968 -5.664054 4.539880 1.666189 3.319101 -6.677637 4.927597 1.003492 21.050612 -4.728580 2.851530 -8.513580 -11.664434 -4.592996 0.369804 -3.296393 -13.608971 1.671679 8.088164 -1.568689 -1.070924 -4.253265 3.132128 0.327180 0.563310 0.030170 0.625640 9.607213 0.936543 2.992836 11.980420 5.039655 -0.238311 -11.827593 6.634687 -1.760254 2.131525 -2.030081 -0.130500 0.060280 -0.487920 -0.059660 
2.426910 17.306780 -2.640910 -5.559565 -30.351789 8.063576 -15.570918 13.156997 3.038064 -3.655559 0.112924 -5.780162 -8.329785 4.584966 5.118440 -0.627258 4.238294 3.398963 0.983290 0.762690 0.504390 18.071828 -9.565106 3.205556 -5.054673 2.531632 -30.977324 2.843010 -1.578715 -1.236663 -0.049617 -2.234504 3.573761 0.690040 0.463960 0.654170 -2.647989 -3.062764 -7.244047 0.337161 -3.837266 5.732386 4.343599 -5.592268 4.418366 1.841499 3.374289 -7.409092 5.082360 -0.335168 20.955130 -5.045190 1.812820 -7.866070 -10.402861 -4.622160 0.801831 -2.445157 -11.624555 1.573369 8.043598 -4.040989 -1.025528 -4.217455 3.155385 0.332250 0.553650 0.007640 0.600120 7.858871 1.139110 3.834380 10.737447 3.132792 -0.217519 -10.923537 7.742755 -1.640560 2.112910 -2.017860 -0.131210 0.035830 -0.453460 -0.069100 
